<svg xmlns="http://www.w3.org/2000/svg" viewBox="0 0 320 320" role="img" aria-labelledby="title desc">
  <title id="title">Manta Ray</title>
  <desc id="desc">A stylized fish illustration for Manta Ray, without background or label text.</desc>
  <g>
      <path d="M78 162c43-63 123-68 183 0-60 68-140 63-183 0Z" fill="#B7D77A"/>
      <path d="M76 162l-42-43c-5 28-4 57 0 86Z" fill="#F2FFE0"/>
      <path d="M151 111c16-22 39-32 66-30-11 18-24 35-39 49Z" fill="#F2FFE0"/>
      <path d="M151 213c16 22 39 32 66 30-11-18-24-35-39-49Z" fill="#F2FFE0"/>
      <circle cx="231" cy="151" r="7" fill="#2F4C24"/>
      <path d="M134 142c19 12 19 28 0 40M174 131c22 18 22 43 0 62" stroke="#2F4C24" stroke-width="7" stroke-linecap="round" opacity=".28"/>
    </g>
</svg>
